<?xml version="1.0" encoding="utf-8"?>
<!-- Generator: Adobe Illustrator 17.0.0, SVG Export Plug-In . SVG Version: 6.00 Build 0)  -->
<!DOCTYPE svg PUBLIC "-//W3C//DTD SVG 1.1//EN" "http://www.w3.org/Graphics/SVG/1.1/DTD/svg11.dtd">
<svg version="1.1" id="Layer_1" xmlns="http://www.w3.org/2000/svg" xmlns:xlink="http://www.w3.org/1999/xlink" x="0px" y="0px"
	 width="87.919px" height="97.748px" viewBox="0 0 87.919 97.748" enable-background="new 0 0 87.919 97.748" xml:space="preserve">
<g>
	<path fill="#FFCE00" d="M46.921,50.518c-0.204,0.185-0.727,0.641-1.109,0.994c-0.156,0.145-0.197,0.357-0.163,0.567
		c0.072,0.448,0.193,1.418,0.393,1.439c0.106,0.011,0.2-0.184,0.284-0.307c0.221-0.322,0.328-0.503,0.549-0.838
		c0.047-0.071,0.077-0.114,0.105-0.166c0.019-0.036,0.02-0.134,0.014-0.22c-0.005-0.073-0.028-0.897-0.023-1.446
		C46.97,50.516,46.94,50.5,46.921,50.518z"/>
	<path fill="#FFCE00" d="M49.195,47.744c-0.019,0.03-0.028,0.064-0.027,0.099c0.011,0.439,0.027,0.873,0.047,1.304
		c0.004,0.088,0.122,0.114,0.163,0.037c0.509-0.958,1.849-3.282,2.032-3.785c0.225-0.62,0.225-1.062,0.087-1.305
		c-0.121-0.211-0.914-1.312-1.362-2.115c-0.039-0.071-0.146-0.051-0.16,0.028c-0.048,0.269-0.092,0.539-0.131,0.808
		c-0.055,0.432-0.115,0.918-0.166,1.328c-0.023,0.229-0.022,0.172-0.04,0.4c-0.014,0.173,0.023,0.346,0.112,0.495
		c0.148,0.245,0.172,0.159,0.261,0.445c0.033,0.107,0.04,0.222,0.013,0.331C49.812,46.661,49.38,47.446,49.195,47.744z"/>
	<path fill="#FFCE00" d="M47.09,26.84c-0.298,0.582-0.792,1.248-1.229,1.834c-0.366,0.492-0.63,1.218-1.078,1.666
		c-0.374,0.374-1.135,0.847-1.422,0.986c-1.47,0.713-2.525,1.218-4.132,1.731c-0.79,0.252-1.641,1.042-2.336,1.479
		c-0.56,0.353-1.776,1.113-2.014,2.253c-0.105,0.5-0.258,0.894-0.465,1.613c-0.117,0.407-0.641,2.407-0.713,2.765
		c-0.085,0.419-0.294,0.621-0.592,0.943c-0.256,0.277-1.684,1.353-1.523,2.255c0.016,0.089,0.137,0.117,0.204,0.008
		c0.054-0.088,0.053-0.352,0.142-0.426c0.065-0.054,0.18-0.06,0.191,0.212c0.008,0.196,0.049,0.455-0.267,0.846
		c-0.222,0.275-0.212,0.665-0.057,0.576c1.503-0.857,2.219-4,2.305-4.266c0.208-0.648,0.741-3.158,1.021-3.787
		c0.154-0.347,0.489-1.022,0.84-1.167c0.278-0.114,0.506,0.049,0.359,0.392c0,0-0.214,0.574-0.298,0.885
		c-0.102,0.379-0.215,0.721-0.305,1.098c-0.068,0.284-0.096,0.576-0.098,0.868l-0.006,0.801c-0.002,0.213,0.031,0.424,0.034,0.637
		c0.021,1.481-0.273,2.526-0.665,3.931c-0.153,0.55-0.425,1.029-0.588,1.666c-0.528,2.061-0.827,3.831-1.27,5.911
		c-0.134,0.63-0.406,1.85-0.531,2.406c-0.036,0.159,0.066,0.314,0.226,0.343l0.694,0.122c0.149,0.021,0.316,0.027,0.454,0.027
		c0.161,0,0.287-0.137,0.274-0.297c-0.014-0.166-0.072-0.734-0.081-0.918c-0.003-0.06-0.007-0.12-0.007-0.18
		c0.027-2.387,0.505-4.208,1.198-6.402c0.196-0.621,0.852-0.946,1.072-1.541c0.133-0.36,0.296-0.677,0.404-0.984
		c0.512-1.45,1.233-2.758,1.372-3.004c0.216-0.381,0.937-0.595,0.739-0.098c-0.098,0.246-0.621,1.674-0.869,2.411
		c-0.129,0.384-0.092,0.712-0.061,1.117c0.073,0.95,1.147,6.223,1.547,8.218c0.082,0.406,0.071,1.005,0.162,1.449
		c0.031,0.152,0.169,0.261,0.325,0.255c0.328-0.012,0.629-0.05,1.057-0.133c0.197-0.038,0.305-0.252,0.216-0.431
		c-1.272-2.55-1.709-7.908-1.758-9.389c-0.016-0.476,0.176-0.652,0.341-0.873c0.423-0.566,1.245-1.723,1.718-2.626
		c0.18-0.343,0.436-0.748,0.871-0.707c0.746,0.07,0.818,0.063,1.68,0.01c0.507-0.031,1.041-0.283,1.55-0.324
		c0.649-0.054,0.915,0.196,1.032,0.92c0.382,2.417,0.1,4.869,0.615,7.295c0.432,2.039-0.486,4.36,1.083,6.28
		c0.099,0.121,0.252,0.181,0.407,0.171c0.214-0.014,0.489-0.042,0.76-0.072l0.006-0.001c0.213-0.023,0.333-0.258,0.225-0.443
		c-0.411-0.705-0.924-1.377-0.98-2.083c-0.374-4.961-0.48-9.917,1.161-14.73c0.394-1.156,0.353-2.859,0.096-3.92
		c-0.238-0.982,0.261-2.229,0.3-2.609c0.057-0.56,0.21-1.065,0.255-1.521c0.067-0.678,1.609-11.001,1.716-11.635
		c0.152-0.904,0.372-0.935,0.735-1.41c0.363-0.475,3.002-2.611,3.329-3.165c0.456-0.775-0.718-0.519-0.895-0.466
		c-0.719,0.212-1.371,0.491-2.868,0.548c-0.959,0.037-1.474,1.247-2.795,0.868c-0.14-0.04-1.426-0.154-0.868,0.805
		c0.04,0.069,0.112,0.115,0.189,0.135c0.981,0.251,1.237,0.683,1.114,1.343C50.213,17.971,48.909,23.291,47.09,26.84z"/>
	<path fill="#FFCE00" d="M54.52,90.07c-3.338,1.243-6.885,1.914-10.559,1.914c-9.201,0-17.6-4.201-23.936-11.088
		c-0.24,0.737-0.75,1.595-1.825,2.129c6.826,7.304,15.863,11.758,25.761,11.758c5.653,0,11.024-1.453,15.864-4.059
		C57.635,90.717,55.897,90.47,54.52,90.07z"/>
	<path fill="#FFCE00" d="M9.078,58.212c-0.526-2.92-0.805-5.948-0.805-9.054c0-23.617,16.009-42.832,35.687-42.832
		c19.677,0,35.685,19.214,35.685,42.832c0,5.497-0.868,10.755-2.448,15.588c1.059,0.028,2.001,0.136,2.834,0.311
		c1.558-4.953,2.412-10.31,2.412-15.899c0-25.161-17.264-45.63-38.484-45.63c-21.221,0-38.486,20.47-38.486,45.63
		c0,3.099,0.263,6.127,0.762,9.054H9.078z"/>
	<path fill="#000A56" d="M59.766,69.825c-1.13,0-1.656,1.799-1.656,4.467c0,2.669,0.526,4.467,1.656,4.467
		c1.13,0,1.656-1.798,1.656-4.467C61.422,71.624,60.896,69.825,59.766,69.825z"/>
	<path fill="#000A56" d="M86.391,76.801v-4.135c0-2.05-0.609-5.06-3.794-6.72c1.677-5.314,2.597-11.066,2.597-17.072
		c0-26.95-18.461-48.797-41.234-48.797c-22.774,0-41.235,21.847-41.235,48.797c0,3.302,0.279,6.526,0.807,9.644
		c-0.826,0.293-1.639,0.816-2.177,1.654c-0.703,1.099-1.167,3.604-1.167,4.342c0,2.085,1.779,4.336,4.652,4.336
		c0.532,0,0.998-0.087,1.407-0.221c0.17,0.453,0.343,0.903,0.524,1.348v6.577c-0.925,0.765-1.393,1.787-1.393,3.049
		c0,0.657,0.22,3.934,4.565,3.934h4.998c7.451,8.735,17.702,14.132,29.019,14.132c11.233,0,21.414-5.318,28.851-13.939
		c0.379,0.044,0.772,0.07,1.183,0.07c1.258,0,2.4-0.204,3.389-0.595c0.627,0.292,1.373,0.439,2.236,0.439h3.916
		c2.021,0,4.197-1.207,4.197-3.856C87.732,78.229,86.936,77.295,86.391,76.801z M43.961,3.528c21.22,0,38.484,20.47,38.484,45.63
		c0,5.589-0.854,10.946-2.412,15.899c-0.834-0.175-1.775-0.283-2.834-0.311c1.579-4.833,2.448-10.091,2.448-15.588
		c0-23.617-16.008-42.832-35.685-42.832c-19.678,0-35.687,19.214-35.687,42.832c0,3.106,0.279,6.134,0.805,9.054H6.237
		c-0.499-2.927-0.762-5.955-0.762-9.054C5.474,23.998,22.739,3.528,43.961,3.528z M66.258,70.696
		c0.841,0.986,1.209,2.407,1.209,3.742c0,2.234-1.104,4.206-2.891,5.221v0.058c1.603,0.29,3.206,1.189,3.206,3.22
		c0,2.611-2.418,4.905-7.858,4.905c-6.229,0-7.701-2.005-7.701-3.6c0-1.537,1.555-1.969,3.71-1.969c1.261,0,1.967,0.158,1.967,0.694
		c0,0.348-0.053,0.451-0.053,0.712c0,0.551,0.683,1.211,1.997,1.211c1.787,0,2.681-1.257,2.681-2.243c0-0.928-0.71-1.421-1.393-1.77
		c-0.683,0.087-1.367,0.203-2.05,0.203c-3.653,0-7.017-2.118-7.017-6.556c0-5.134,3.942-6.904,8.016-6.904
		c2.05,0,3.715,0.268,5.792,0.268c0.556,0,1.923-0.321,2.257-0.321C69.808,67.568,67.887,70.696,66.258,70.696z M30.261,77.126
		c-1.222,2.722-1.742,3.793-4.176,3.793c-2.313,0-2.838-0.026-5.362-8.516c-1.025-3.443-1.63-2.523-1.63-3.469
		c0-0.788,0.788-1.051,1.84-1.051h3.717c1.209,0,1.844,0.263,1.844,1.025c0,1.078-0.627,0.683-0.627,1.419
		c0,1.13,1.078,5.388,1.945,6.965c0.552-1.288,0.921-2.612,1.219-4.214c0.752-4.036-0.773-3.066-0.773-4.196
		c0-0.683,0.236-0.999,1.471-0.999h2.909c1.367,0,1.949,0.315,1.949,1.025c0,0.92-0.626,0.788-0.626,1.288
		c0,1.735,1.63,6.124,1.945,7.096c0.762-1.63,1.787-4.731,1.787-6.465c0-1.104-0.992-0.946-0.992-1.971
		c0-0.762,0.42-0.973,1.314-0.973h1.987c1.051,0,1.476,0.368,1.476,1.025c0,0.972-0.44,0.552-0.966,2.182
		c-0.552,1.682-1.724,5.314-2.144,6.392c-0.815,2.05-1.174,3.438-3.901,3.438c-3.05,0-3.023-1.325-4.153-3.916
		C30.334,77.044,30.279,77.085,30.261,77.126z M49.221,15.969c-0.077-0.02-0.149-0.066-0.189-0.135
		c-0.558-0.958,0.727-0.845,0.868-0.805c1.321,0.379,1.837-0.831,2.795-0.868c1.498-0.057,2.15-0.335,2.868-0.548
		c0.177-0.052,1.351-0.308,0.895,0.466c-0.326,0.554-2.966,2.69-3.329,3.165c-0.363,0.475-0.583,0.506-0.735,1.41
		c-0.107,0.634-1.649,10.957-1.716,11.635c-0.045,0.456-0.197,0.961-0.255,1.521c-0.039,0.38-0.538,1.627-0.3,2.609
		c0.257,1.061,0.298,2.763-0.096,3.92c-1.641,4.813-1.535,9.769-1.161,14.73c0.055,0.707,0.569,1.379,0.98,2.083
		c0.108,0.185-0.012,0.42-0.225,0.443l-0.006,0.001c-0.271,0.029-0.546,0.057-0.76,0.072c-0.155,0.011-0.309-0.05-0.407-0.171
		c-1.569-1.919-0.651-4.241-1.083-6.28c-0.515-2.426-0.233-4.878-0.615-7.295c-0.117-0.725-0.383-0.974-1.032-0.92
		c-0.509,0.042-1.043,0.293-1.55,0.324c-0.862,0.053-0.934,0.06-1.68-0.01c-0.435-0.041-0.691,0.364-0.871,0.707
		c-0.473,0.903-1.295,2.06-1.718,2.626c-0.165,0.221-0.357,0.397-0.341,0.873c0.049,1.481,0.486,6.839,1.758,9.389
		c0.09,0.179-0.019,0.393-0.216,0.431c-0.428,0.083-0.73,0.121-1.057,0.133c-0.156,0.006-0.294-0.103-0.325-0.255
		c-0.091-0.444-0.081-1.043-0.162-1.449c-0.4-1.995-1.474-7.268-1.547-8.218c-0.031-0.405-0.068-0.733,0.061-1.117
		c0.248-0.737,0.771-2.165,0.869-2.411c0.199-0.497-0.523-0.282-0.739,0.098c-0.139,0.246-0.86,1.554-1.372,3.004
		c-0.108,0.307-0.271,0.624-0.404,0.984c-0.22,0.595-0.876,0.92-1.072,1.541c-0.693,2.194-1.171,4.015-1.198,6.402
		c-0.001,0.06,0.004,0.12,0.007,0.18c0.009,0.184,0.067,0.752,0.081,0.918c0.013,0.161-0.113,0.298-0.274,0.297
		c-0.138,0-0.305-0.006-0.454-0.027l-0.694-0.122c-0.16-0.029-0.262-0.184-0.226-0.343c0.125-0.556,0.397-1.777,0.531-2.406
		c0.442-2.08,0.741-3.85,1.27-5.911c0.163-0.637,0.435-1.117,0.588-1.666c0.392-1.405,0.686-2.45,0.665-3.931
		c-0.003-0.213-0.035-0.424-0.034-0.637l0.006-0.801c0.002-0.292,0.031-0.584,0.098-0.868c0.09-0.377,0.203-0.719,0.305-1.098
		c0.084-0.312,0.298-0.885,0.298-0.885c0.147-0.343-0.082-0.506-0.359-0.392c-0.351,0.144-0.686,0.82-0.84,1.167
		c-0.28,0.629-0.813,3.139-1.021,3.787c-0.085,0.266-0.801,3.409-2.305,4.266c-0.155,0.088-0.165-0.301,0.057-0.576
		c0.316-0.392,0.275-0.65,0.267-0.846c-0.011-0.272-0.125-0.267-0.191-0.212c-0.089,0.074-0.087,0.338-0.142,0.426
		c-0.067,0.109-0.188,0.081-0.204-0.008c-0.161-0.902,1.267-1.978,1.523-2.255c0.298-0.322,0.506-0.524,0.592-0.943
		c0.073-0.358,0.596-2.358,0.713-2.765c0.208-0.72,0.361-1.113,0.465-1.613c0.238-1.14,1.454-1.9,2.014-2.253
		c0.695-0.438,1.546-1.227,2.336-1.479c1.607-0.513,2.662-1.018,4.132-1.731c0.287-0.139,1.048-0.612,1.422-0.986
		c0.448-0.448,0.712-1.174,1.078-1.666c0.436-0.586,0.93-1.253,1.229-1.834c1.819-3.549,3.123-8.869,3.246-9.528
		C50.458,16.652,50.203,16.22,49.221,15.969z M43.08,69.591c0-0.694,0.399-1.194,1.44-1.3c1.308-0.134,3.71-0.774,4.244-0.774
		c0.801,0,1.335,0.534,1.335,2.456v7.688c0,1.415,1.014,0.988,1.014,2.055c0,0.454-0.481,1.041-1.388,1.041h-5.125
		c-0.908,0-1.388-0.587-1.388-1.041c0-1.068,1.014-0.641,1.014-2.055V71.68C44.227,70.185,43.08,70.819,43.08,69.591z
		 M46.993,51.989c0.006,0.086,0.006,0.184-0.014,0.22c-0.028,0.052-0.059,0.095-0.105,0.166c-0.221,0.335-0.328,0.516-0.549,0.838
		c-0.084,0.123-0.178,0.318-0.284,0.307c-0.2-0.021-0.321-0.991-0.393-1.439c-0.034-0.21,0.007-0.423,0.163-0.567
		c0.382-0.354,0.905-0.809,1.109-0.994c0.02-0.018,0.05-0.003,0.05,0.024C46.965,51.092,46.988,51.916,46.993,51.989z
		 M46.739,60.747c1.865,0,3.376,1.186,3.376,2.649c0,1.463-1.512,2.649-3.376,2.649c-1.865,0-3.376-1.186-3.376-2.649
		C43.363,61.933,44.874,60.747,46.739,60.747z M50.009,45.483c-0.088-0.286-0.113-0.2-0.261-0.445
		c-0.089-0.149-0.126-0.322-0.112-0.495c0.018-0.228,0.017-0.171,0.04-0.4c0.051-0.41,0.112-0.896,0.166-1.328
		c0.039-0.269,0.083-0.538,0.131-0.808c0.014-0.08,0.121-0.099,0.16-0.028c0.448,0.803,1.241,1.903,1.362,2.115
		c0.139,0.243,0.139,0.685-0.087,1.305c-0.183,0.503-1.523,2.827-2.032,3.785c-0.041,0.078-0.159,0.051-0.163-0.037
		c-0.02-0.43-0.036-0.865-0.047-1.304c-0.001-0.035,0.008-0.069,0.027-0.099c0.185-0.297,0.617-1.082,0.828-1.93
		C50.05,45.705,50.043,45.59,50.009,45.483z M9.943,80.656c-1.34,0-1.682-0.394-1.682-1.051c0-1.367,1.393-0.736,1.393-2.155V65.342
		c0-0.893-0.236-1.13-0.946-1.13c-2.444,0-2.317,1.756-3.868,1.756c-0.788,0-1.769-0.56-1.769-1.453c0-0.473,0.447-2.39,0.71-2.784
		c0.236-0.368,0.918-0.635,1.47-0.635h15.116c0.552,0,1.233,0.267,1.47,0.635c0.263,0.394,0.71,2.311,0.71,2.784
		c0,0.893-0.981,1.453-1.769,1.453c-1.551,0-1.423-1.756-3.868-1.756c-0.71,0-0.946,0.237-0.946,1.13v12.108
		c0,1.42,1.393,0.789,1.393,2.155c0,0.657-0.342,1.051-1.682,1.051H9.943z M18.2,83.025c1.075-0.534,1.585-1.392,1.825-2.129
		c6.335,6.887,14.734,11.088,23.936,11.088c3.674,0,7.221-0.671,10.559-1.914c1.377,0.4,3.116,0.646,5.305,0.653
		c-4.84,2.606-10.211,4.059-15.864,4.059C34.063,94.783,25.026,90.329,18.2,83.025z M83.534,80.763h-3.916
		c-1.183,0-1.498-0.291-1.708-1.474c-0.841,1.288-2.497,1.63-3.916,1.63c-3.338,0-4.862-2.155-4.862-4.153
		c0-2.733,2.313-4.52,8.463-4.52c-0.053-2.05-0.41-2.523-1.488-2.523c-1.498,0-2.128,1.564-3.69,1.564
		c-1.758,0-2.208-0.25-2.208-1.144c0-1.525,1.971-2.523,6.439-2.523c3.627,0,6.86,0.894,6.86,5.046v4.626
		c0,1.63,1.34,1.316,1.34,2.499C84.848,80.5,84.376,80.763,83.534,80.763z"/>
	<path fill="#000A56" d="M76.07,78.29c1.262,0,1.656-1.84,1.656-4.1c-1.63,0-2.812,0.92-2.812,2.602
		C74.914,77.712,75.387,78.29,76.07,78.29z"/>
	<path fill="#FFFFFF" d="M43.213,79.715c0,0.454,0.481,1.041,1.388,1.041h5.125c0.907,0,1.388-0.587,1.388-1.041
		c0-1.068-1.014-0.641-1.014-2.055v-7.688c0-1.922-0.534-2.456-1.335-2.456c-0.534,0-2.936,0.641-4.244,0.774
		c-1.041,0.107-1.44,0.606-1.44,1.3c0,1.228,1.147,0.595,1.147,2.089v5.979C44.227,79.074,43.213,78.647,43.213,79.715z"/>
	<ellipse fill="#FFFFFF" cx="46.739" cy="63.396" rx="3.376" ry="2.648"/>
	<path fill="#FFFFFF" d="M34.468,80.919c2.727,0,3.086-1.388,3.901-3.438c0.42-1.078,1.592-4.71,2.144-6.392
		c0.526-1.63,0.966-1.209,0.966-2.182c0-0.657-0.425-1.025-1.476-1.025h-1.987c-0.894,0-1.314,0.21-1.314,0.973
		c0,1.025,0.992,0.867,0.992,1.971c0,1.735-1.025,4.836-1.787,6.465c-0.315-0.973-1.945-5.362-1.945-7.096
		c0-0.499,0.626-0.368,0.626-1.288c0-0.71-0.582-1.025-1.949-1.025h-2.909c-1.235,0-1.471,0.315-1.471,0.999
		c0,1.13,1.525,0.16,0.773,4.196c-0.298,1.602-0.668,2.926-1.219,4.214c-0.867-1.577-1.945-5.835-1.945-6.965
		c0-0.736,0.627-0.342,0.627-1.419c0-0.762-0.635-1.025-1.844-1.025h-3.717c-1.051,0-1.84,0.263-1.84,1.051
		c0,0.946,0.605,0.026,1.63,3.469c2.523,8.489,3.049,8.516,5.362,8.516c2.434,0,2.955-1.072,4.176-3.793
		c0.018-0.041,0.073-0.081,0.055-0.123C31.445,79.594,31.418,80.919,34.468,80.919z"/>
	<path fill="#FFFFFF" d="M68.13,67.568c-0.334,0-1.701,0.321-2.257,0.321c-2.077,0-3.742-0.268-5.792-0.268
		c-4.074,0-8.016,1.769-8.016,6.904c0,4.438,3.364,6.556,7.017,6.556c0.683,0,1.367-0.116,2.05-0.203
		c0.683,0.348,1.393,0.841,1.393,1.77c0,0.986-0.893,2.243-2.681,2.243c-1.314,0-1.997-0.66-1.997-1.211
		c0-0.261,0.053-0.364,0.053-0.712c0-0.536-0.705-0.694-1.967-0.694c-2.155,0-3.71,0.432-3.71,1.969c0,1.595,1.472,3.6,7.701,3.6
		c5.44,0,7.858-2.295,7.858-4.905c0-2.03-1.603-2.929-3.206-3.22v-0.058c1.787-1.015,2.891-2.988,2.891-5.221
		c0-1.334-0.368-2.756-1.209-3.742C67.887,70.696,69.808,67.568,68.13,67.568z M59.766,78.759c-1.13,0-1.656-1.798-1.656-4.467
		c0-2.669,0.526-4.467,1.656-4.467c1.13,0,1.656,1.799,1.656,4.467C61.422,76.961,60.896,78.759,59.766,78.759z"/>
	<path fill="#FFFFFF" d="M83.508,77.292v-4.626c0-4.152-3.233-5.046-6.86-5.046c-4.468,0-6.439,0.999-6.439,2.523
		c0,0.893,0.449,1.144,2.208,1.144c1.562,0,2.192-1.564,3.69-1.564c1.077,0,1.435,0.473,1.488,2.523c-6.15,0-8.463,1.787-8.463,4.52
		c0,1.998,1.524,4.153,4.862,4.153c1.419,0,3.075-0.342,3.916-1.63c0.21,1.183,0.525,1.474,1.708,1.474h3.916
		c0.841,0,1.314-0.263,1.314-0.972C84.848,78.608,83.508,78.921,83.508,77.292z M77.726,74.19c0,2.26-0.394,4.1-1.656,4.1
		c-0.683,0-1.156-0.578-1.156-1.498C74.914,75.11,76.096,74.19,77.726,74.19z"/>
	<path fill="#FFFFFF" d="M17.354,79.605c0-1.367-1.393-0.736-1.393-2.155V65.342c0-0.893,0.237-1.13,0.946-1.13
		c2.444,0,2.317,1.756,3.868,1.756c0.788,0,1.769-0.56,1.769-1.453c0-0.473-0.447-2.39-0.71-2.784
		c-0.237-0.368-0.918-0.635-1.47-0.635H5.25c-0.552,0-1.233,0.267-1.47,0.635c-0.263,0.394-0.71,2.311-0.71,2.784
		c0,0.893,0.981,1.453,1.769,1.453c1.551,0,1.423-1.756,3.868-1.756c0.71,0,0.946,0.237,0.946,1.13v12.108
		c0,1.42-1.393,0.789-1.393,2.155c0,0.657,0.342,1.051,1.682,1.051h5.73C17.013,80.656,17.354,80.262,17.354,79.605z"/>
</g>
</svg>
